# xmcd CD database file
#
# Track frame offsets:
#	150
#	25241
#	51845
#	70784
#	87436
#	125130
#	143045
#	159357
#	173038
#	183839
#
# Disc length: 2848 seconds
#
# Revision: 0
# Processed by: cddbd v1.5.2PL0 Copyright (c) Steve Scherf et al.
# Submitted via: CDex 2.06
#
DISCID=820b1e0a
DTITLE=Erin Harpe and the Delta Swingers - Big Road
DYEAR=2017
DGENRE=Country
TTITLE0=Kokomo
TTITLE1=Lonely Leavin' Town
TTITLE2=Big Road
TTITLE3=Frankie
TTITLE4=Shake Your Hips
TTITLE5=Casey Jones
TTITLE6=Voodoo Blues
TTITLE7=Stop and Listen
TTITLE8=Guilty
TTITLE9=Gimme That (Somethin' Special)
EXTD=YEAR: 2017
EXTT0=
EXTT1=
EXTT2=
EXTT3=
EXTT4=
EXTT5=
EXTT6=
EXTT7=
EXTT8=
EXTT9=
PLAYORDER=
